<svg height="512" viewBox="0 0 512 512" width="512" xmlns="http://www.w3.org/2000/svg"><g id="filled_outline" data-name="filled outline"><path d="m288.5 216a64 64 0 0 1 127.351-9.029l15.031-4.164a79.49 79.49 0 0 0 -157.876 13.193c0 2.688.138 5.345.4 7.966h15.61a64.245 64.245 0 0 1 -.516-7.966z" fill="#fd9226"/><path d="m352.5 168a47.96 47.96 0 0 0 -47.327 55.966h16.331a32 32 0 1 1 62.987-8.306l15.775-4.371a48.063 48.063 0 0 0 -47.766-43.289z" fill="#91a666"/><path d="m367.911 220.254a16 16 0 1 0 -29.264 3.712h15.87z" fill="#7a80dd"/><path d="m352.5 184a32.012 32.012 0 0 0 -31 39.966h17.14a16.007 16.007 0 1 1 29.264-3.712l8.51-2.358 8.073-2.236a32.032 32.032 0 0 0 -31.987-31.66z" fill="#6699ce"/><path d="m352.5 152a63.885 63.885 0 0 0 -63.487 71.966h16.16a48 48 0 1 1 95.093-12.677l7.8-2.16 7.786-2.158a64.088 64.088 0 0 0 -63.352-54.971z" fill="#eeb436"/><path d="m352.5 120.5a95.605 95.605 0 0 0 -95.5 95.5c0 2.683.117 5.338.335 7.966h16.065c-.262-2.621-.4-5.278-.4-7.966a79.49 79.49 0 0 1 157.879-13.193l7.772-2.153 7.732-2.143a95.652 95.652 0 0 0 -93.883-78.011z" fill="#ea2b2d"/><path d="m260 40h-5.381a23.988 23.988 0 0 0 -45.238 0h-5.381a20 20 0 0 0 -20 20 20 20 0 0 0 20 20h56a20 20 0 0 0 20-20 20 20 0 0 0 -20-20z" fill="#eae9e4"/><path d="m376 216h-252.495l-3.505 24-40 56 32 28.645v115.355l72 8v40h176v-72l9.961-39.157a382.51 382.51 0 0 0 7.149-153.793z" fill="#f6bb92"/><circle cx="136" cy="96" fill="#ea2b2d" r="20"/><circle cx="84" cy="164" fill="#91a666" r="24.02"/><circle cx="348" cy="44" fill="#6699ce" r="24.168"/><path d="m234.841 102.512 12.86 27.345 29.981 3.781-22.033 20.681 5.669 29.681-26.477-14.563-26.477 14.563 5.668-29.681-22.032-20.681 29.98-3.781z" fill="#eeb436"/><circle cx="432" cy="88" fill="#fd9226" r="20"/><path d="m448.667 201.333h-1.367a32 32 0 0 0 -62.6 0h-1.367a23.334 23.334 0 0 0 0 46.667h65.334a23.334 23.334 0 0 0 0-46.667z" fill="#eae9e4"/><path d="m211.578 260.716a8 8 0 0 0 -10.733 3.577l-1.063 2.126a24.569 24.569 0 0 1 -43.951 0l-1.062-2.125a8 8 0 0 0 -14.311 7.156l1.063 2.124a40.569 40.569 0 0 0 72.572 0l1.062-2.125a8 8 0 0 0 -3.577-10.733z"/><path d="m453.351 193.683a40.16 40.16 0 0 0 -14.542-18.483 8.118 8.118 0 0 0 -.351-.854 95.587 95.587 0 0 0 -59.358-50.079 63.576 63.576 0 0 1 31.187-26.052 24 24 0 1 0 -1.461-16.454 79.579 79.579 0 0 0 -46.258 39.272 95.5 95.5 0 0 0 -95.239 51.806l-3-15.7 18.824-17.669a8 8 0 0 0 -4.474-13.771l-8.679-1.094v-38.458a28 28 0 0 0 -10-54.147h-.3a31.981 31.981 0 0 0 -55.4 0h-.3a28 28 0 0 0 -4 55.71v36.855l-9 1.135a8 8 0 0 0 -4.475 13.771l18.825 17.669-4.845 25.36a8 8 0 0 0 11.714 8.511l22.622-12.444 22.621 12.444a7.94 7.94 0 0 0 2.63.876 95.017 95.017 0 0 0 -2.748 16.113h-133.838a8 8 0 0 0 -7.916 6.844l-3.226 22.083-38.874 54.424a8 8 0 0 0 1.174 10.61l29.336 26.261v111.778a8 8 0 0 0 7.116 7.951l64.884 7.209v32.84a8 8 0 0 0 8 8h176a8 8 0 0 0 8-8v-71l9.714-38.188a389.364 389.364 0 0 0 11.143-122.812h59.81a31.335 31.335 0 0 0 4.684-62.317zm-199.351-105.683v34.587l-.933-.117-10.987-23.363a8 8 0 0 0 -14.478 0l-10.988 23.363-.614.077v-34.547zm-62-28a12.013 12.013 0 0 1 12-12h5.381a8 8 0 0 0 7.542-5.332 15.988 15.988 0 0 1 30.154 0 8 8 0 0 0 7.542 5.332h5.381a12 12 0 0 1 0 24h-56a12.013 12.013 0 0 1 -12-12zm58.174 88.485a8 8 0 0 0 -2.383 7.334l2.478 12.973-11.569-6.365a8 8 0 0 0 -7.711 0l-11.573 6.365 2.479-12.973a8.005 8.005 0 0 0 -2.383-7.334l-9.63-9.039 13.1-1.652a8 8 0 0 0 6.239-4.533l5.621-11.951 5.621 11.951a8 8 0 0 0 6.238 4.533l13.1 1.652zm181.826-68.485a8 8 0 1 1 -8 8 8.009 8.009 0 0 1 8-8zm-79.5 56.5a78.882 78.882 0 0 1 63.416 31.5 39.691 39.691 0 0 0 -17.057 3.9 63.966 63.966 0 0 0 -109.838 36.1h-15.613a79.608 79.608 0 0 1 79.092-71.5zm4.315 71.5h-18.15a15.963 15.963 0 0 1 22.5-5.446 31.544 31.544 0 0 0 -4.347 5.446zm21.831-14.317q-1.38.207-2.721.536a31.987 31.987 0 0 0 -54.409 13.781h-16.334a47.984 47.984 0 0 1 80.807-26.378 39.849 39.849 0 0 0 -7.34 12.061zm-16.438 181.187-9.961 39.157a8.008 8.008 0 0 0 -.247 1.973v64h-160v-32a8 8 0 0 0 -7.116-7.951l-64.884-7.209v-62.776h16.218a42.089 42.089 0 0 0 29.956-12.407 8 8 0 0 0 -11.315-11.314 26.188 26.188 0 0 1 -18.641 7.721h-16.218v-29.418a8 8 0 0 0 -2.664-5.961l-26.661-23.867 35.835-50.169a7.992 7.992 0 0 0 1.406-3.493l2.506-17.156h221.593c0 .222-.015.443-.015.666a31.387 31.387 0 0 0 20.669 29.463 373.491 373.491 0 0 1 -10.461 120.741zm86.459-134.87h-65.334a15.334 15.334 0 0 1 0-30.667h1.367a8 8 0 0 0 7.826-6.341 24 24 0 0 1 46.948 0 8 8 0 0 0 7.826 6.341h1.367a15.334 15.334 0 0 1 0 30.667z"/><path d="m312 104a8 8 0 0 0 8-8v-1.373a46.268 46.268 0 0 1 10.167-29.056 28.01 28.01 0 1 0 -9.09-13.9 62.18 62.18 0 0 0 -17.077 42.956v1.373a8 8 0 0 0 8 8zm36-72a12 12 0 1 1 -12 12 12.013 12.013 0 0 1 12-12z"/><path d="m136 120a23.845 23.845 0 0 0 9.737-2.072 69.53 69.53 0 0 1 14.263 42.072 8 8 0 0 0 16 0 85.593 85.593 0 0 0 -18.452-52.971c-.049-.061-.1-.115-.154-.175a23.993 23.993 0 1 0 -21.394 13.146zm0-32a8 8 0 1 1 -8 8 8.009 8.009 0 0 1 8-8z"/><path d="m111.085 171.1a40.414 40.414 0 0 1 26.259 17.336 8 8 0 0 0 13.312-8.876 56.383 56.383 0 0 0 -40.205-24.729 27.99 27.99 0 1 0 .634 16.269zm-39.085-7.1a12 12 0 1 1 12 12 12.013 12.013 0 0 1 -12-12z"/><path d="m71.943 100.734a8 8 0 0 0 -7-8.891 73.55 73.55 0 0 0 -35.919 4.729 8 8 0 1 0 5.942 14.856 57.524 57.524 0 0 1 28.081-3.7 7.986 7.986 0 0 0 8.896-6.994z"/><path d="m90.2 118.448a57.364 57.364 0 0 1 6.6 5.672l1.537 1.537a8 8 0 0 0 11.314-11.314l-1.537-1.537a73.587 73.587 0 0 0 -8.447-7.254 8 8 0 1 0 -9.471 12.9z"/></g></svg>